:SAMPLES-PER-SECOND 30
:FULLY-SPECIFIED
:DEGREES
1
root  17.8691 39.8853 26.9374 -161.246 -49.9592 171.808
RightUpLeg  -16.8965 -10.4569 -4.40484
RightLeg  12.1902 -0.811274 0.83467
RightFoot  -6.46005 -0.0212986 -0.697268
RightToes  5.82063e-011 0 -3.6325e-017
Spine  -10.381 0.692941 1.91267
Spine1  9.27486 0.905584 -1.56744
HEad  -15.5049 5.0444 -5.52236
LeftShoulder1  -0.193844 4.01226 -31.9705
LeftArm  12.7177 -7.33091 -48.5576
LeftForeArm  19.0841 -18.5812 -5.9932
LeftHand  0.0194632 2.84458 -1.89765
RightShoulder  -0.722743 -5.57198 28.282
RightArm  16.1745 2.85689 47.7095
RightForeArm  9.62222 13.3345 6.39547
RightHand  -0.240993 0.580913 -4.77265
LeftUpLeg  -12.9051 2.39935 -1.65377
LeftLeg  0.387412 4.62138 -0.241298
LeftFoot  1.30929 -0.145516 1.24199
LeftToes  1.81573e-012 2.54609e-010 -3.45981e-011
2
root  17.9128 39.9002 26.8315 -160.953 -50.2498 171.561
RightUpLeg  -16.8043 -10.621 -4.445
RightLeg  12.0345 -0.98137 1.02796
RightFoot  -6.40476 -0.00739146 -0.913338
RightToes  5.82063e-011 0 -3.6325e-017
Spine  -10.8702 0.514956 1.98482
Spine1  9.61837 0.629563 -1.28474
HEad  -18.5168 6.68344 -6.72546
LeftShoulder1  -0.212583 4.05643 -32.2972
LeftArm  11.6237 -7.4438 -48.4928
LeftForeArm  21.3606 -17.2755 -6.71866
LeftHand  0.0151087 3.66143 -2.76437
RightShoulder  -0.686841 -5.48607 27.972
RightArm  17.1644 3.14401 48.1196
RightForeArm  8.11454 14.9942 5.98054
RightHand  -0.249052 1.08431 -4.58594
LeftUpLeg  -12.769 2.17859 -1.66147
LeftLeg  -0.093405 4.58642 -0.120771
LeftFoot  1.60478 -0.113141 0.912936
LeftToes  1.81573e-012 2.54609e-010 -3.45981e-011
3
root  17.9745 39.9161 26.6711 -160.857 -50.2402 171.536
RightUpLeg  -16.5931 -10.3207 -4.29399
RightLeg  11.6439 -1.30478 1.10524
RightFoot  -6.30159 0.0105095 -1.2077
RightToes  5.82063e-011 0 -3.6325e-017
Spine  -11.3668 0.596731 2.34973
Spine1  9.97771 0.727722 -1.51359
HEad  -18.4412 5.76532 -5.8214
LeftShoulder1  -0.144582 3.88576 -31.7368
LeftArm  9.16344 -6.65357 -48.9918
LeftForeArm  24.2911 -15.7591 -7.41311
LeftHand  0.0149538 4.05676 -3.45927
RightShoulder  -0.700518 -5.52276 28.0261
RightArm  18.6194 3.49787 48.4188
RightForeArm  7.29039 16.8968 5.50016
RightHand  -0.244315 1.26514 -4.39229
LeftUpLeg  -12.6382 2.0492 -1.54404
LeftLeg  -0.442365 5.26349 0.127698
LeftFoot  1.92875 -0.0649985 0.457444
LeftToes  1.81573e-012 2.54609e-010 -3.45981e-011
4
root  18.0486 39.9226 26.4971 -160.716 -50.1436 171.559
RightUpLeg  -16.5366 -9.90182 -4.06656
RightLeg  11.3139 -1.59807 1.13291
RightFoot  -6.20315 0.0259956 -1.51662
RightToes  5.82063e-011 0 -3.6325e-017
Spine  -11.7715 0.852799 2.53507
Spine1  10.0656 0.963086 -1.51423
HEad  -17.5478 6.31555 -6.02349
LeftShoulder1  -0.174093 3.95886 -32.1385
LeftArm  6.29318 -6.70571 -48.5079
LeftForeArm  27.4493 -13.3047 -8.55104
LeftHand  0.0133057 3.99794 -3.14008
RightShoulder  -0.711527 -5.55078 28.0954
RightArm  20.1385 3.63091 48.5044
RightForeArm  5.84599 18.3705 5.21419
RightHand  -0.271371 1.64294 -4.63903
LeftUpLeg  -12.5103 2.26821 -1.23386
LeftLeg  -0.891717 5.11181 -0.0148107
LeftFoot  2.21631 -0.068942 0.467068
LeftToes  1.81573e-012 2.54609e-010 -3.45981e-011
5
root  18.0984 39.9227 26.3733 -160.462 -50.5199 171.258
RightUpLeg  -16.3559 -9.9724 -4.12624
RightLeg  11.239 -1.91067 1.28876
RightFoot  -6.29101 0.0323144 -1.69861
RightToes  5.82063e-011 0 -3.6325e-017
Spine  -11.8384 0.832615 2.44491
Spine1  9.99347 0.865533 -1.19574
HEad  -16.8834 6.50273 -6.23236
LeftShoulder1  -0.160046 3.9217 -32.1343
LeftArm  4.69026 -5.69057 -48.2278
LeftForeArm  29.0434 -12.124 -8.96528
LeftHand  0.0104112 3.65328 -2.38965
RightShoulder  -0.712267 -5.55225 28.107
RightArm  21.2558 3.82022 48.6219
RightForeArm  5.3485 19.1096 5.09642
RightHand  -0.274273 1.69765 -4.6541
LeftUpLeg  -12.4656 2.12825 -1.21287
LeftLeg  -1.00538 4.91862 0.0486601
LeftFoot  2.35195 -0.0638188 0.412904
LeftToes  1.81573e-012 2.54609e-010 -3.45981e-011
6
root  18.1664 39.9164 26.2167 -160.423 -50.4711 171.365
RightUpLeg  -16.3682 -9.67292 -3.83437
RightLeg  11.1548 -2.11754 1.27431
RightFoot  -6.3912 0.0390349 -1.90386
RightToes  5.82063e-011 0 -3.6325e-017
Spine  -11.8831 1.05767 2.43353
Spine1  9.78955 1.05645 -1.04607
HEad  -16.9313 6.90883 -5.58704
LeftShoulder1  -0.223507 4.08296 -32.4688
LeftArm  5.00469 -4.48029 -47.2869
LeftForeArm  29.3681 -12.1035 -9.01989
LeftHand  -0.0011922 4.63646 -4.07599
RightShoulder  -0.716629 -5.55999 28.1897
RightArm  21.7954 4.06436 48.825
RightForeArm  5.52983 18.9571 5.17166
RightHand  -0.282128 1.47705 -4.91408
LeftUpLeg  -12.565 2.15919 -0.956129
LeftLeg  -0.915046 5.02608 0.184858
LeftFoot  2.34601 -0.0322504 0.15051
LeftToes  1.81573e-012 2.54609e-010 -3.45981e-011
7
root  18.2296 39.9067 26.0827 -160.394 -50.6217 171.332
RightUpLeg  -16.2737 -9.54658 -3.64803
RightLeg  11.1694 -2.37612 1.27546
RightFoot  -6.57622 0.0399347 -2.02898
RightToes  5.82063e-011 0 -3.6325e-017
Spine  -12.2884 1.24682 2.61507
Spine1  10.4315 1.30403 -1.29178
HEad  -16.6358 5.75552 -5.7939
LeftShoulder1  -0.201208 4.03109 -32.0425
LeftArm  2.77833 -3.70901 -47.1458
LeftForeArm  30.8034 -10.6221 -9.36586
LeftHand  -0.00228448 4.59231 -3.85045
RightShoulder  -0.728616 -5.5886 28.2932
RightArm  21.826 4.54918 49.197
RightForeArm  5.88333 18.2303 5.402
RightHand  -0.248754 1.06135 -4.5984
LeftUpLeg  -12.4201 2.25419 -0.742385
LeftLeg  -1.1257 4.8041 0.212214
LeftFoot  2.34944 0.00648918 -0.17278
LeftToes  1.81573e-012 2.54609e-010 -3.45981e-011
8
root  18.2973 39.8834 25.9612 -160.194 -50.865 171.21
RightUpLeg  -16.3596 -9.37532 -3.45659
RightLeg  11.2993 -2.82878 1.16055
RightFoot  -6.82159 0.0415117 -2.22419
RightToes  5.82063e-011 0 -3.6325e-017
Spine  -12.3678 1.30117 2.45651
Spine1  10.5021 1.32 -1.0667
HEad  -16.2704 5.3787 -6.11495
LeftShoulder1  -0.21763 4.069 -32.3589
LeftArm  1.95058 -2.76322 -46.1752
LeftForeArm  31.4565 -9.9495 -9.49774
LeftHand  0.0191574 4.01898 -3.9007
RightShoulder  -0.72215 -5.57615 28.1888
RightArm  21.6125 4.82936 49.5384
RightForeArm  6.56923 17.1165 5.78139
RightHand  -0.25801 1.28932 -4.62189
LeftUpLeg  -12.5335 2.25567 -0.597189
LeftLeg  -1.11166 4.62807 0.297248
LeftFoot  2.21509 0.054868 -0.573987
LeftToes  1.81573e-012 2.54609e-010 -3.45981e-011
9
root  18.331 39.8489 25.8553 -160.097 -51.3069 170.987
RightUpLeg  -16.1548 -9.48104 -3.41202
RightLeg  11.4147 -3.2254 1.17872
RightFoot  -7.31174 0.0353044 -2.40227
RightToes  5.82063e-011 0 -3.6325e-017
Spine  -12.3565 1.18415 2.36978
Spine1  10.7901 1.19244 -0.963787
HEad  -16.9581 5.52354 -5.84142
LeftShoulder1  -0.257148 4.16766 -32.5837
LeftArm  0.55213 -2.06577 -45.4384
LeftForeArm  32.4193 -9.07195 -9.49104
LeftHand  -0.0196481 5.016 -4.16814
RightShoulder  -0.724831 -5.57781 28.2774
RightArm  20.6947 4.83526 49.849
RightForeArm  7.6802 16.0643 6.08778
RightHand  -0.241876 0.974568 -4.52124
LeftUpLeg  -12.5866 2.19185 -0.528222
LeftLeg  -0.731694 4.19352 0.427034
LeftFoot  1.79226 0.0798072 -0.789055
LeftToes  1.81573e-012 2.54609e-010 -3.45981e-011
10
root  18.3819 39.8032 25.743 -160.067 -51.6077 170.806
RightUpLeg  -16.0616 -9.57556 -3.32125
RightLeg  11.7833 -3.27121 1.14225
RightFoot  -8.0278 0.0148752 -2.40726
RightToes  5.82063e-011 0 -3.6325e-017
Spine  -12.0242 1.32722 2.71769
Spine1  10.5647 1.46001 -1.528
HEad  -16.2422 5.88567 -6.03636
LeftShoulder1  -0.176916 3.968 -32.0175
LeftArm  -1.76224 -1.17745 -45.2901
LeftForeArm  33.7115 -7.55416 -9.39644
LeftHand  -0.0193739 4.8965 -2.61389
RightShoulder  -0.793652 -5.74782 28.7423
RightArm  20.1689 4.55428 49.6879
RightForeArm  8.8626 15.0535 6.4188
RightHand  -0.221479 0.871256 -4.21235
LeftUpLeg  -12.8417 2.2742 -0.363208
LeftLeg  0.210846 3.70977 0.459294
LeftFoot  0.858439 0.125367 -1.22086
LeftToes  1.81573e-012 2.54609e-010 -3.45981e-011
11
root  18.4019 39.7144 25.6181 -159.954 -51.7111 170.268
RightUpLeg  -16.2374 -9.75685 -3.36201
RightLeg  13.1962 -3.02328 0.758369
RightFoot  -9.3813 -0.0168499 -2.75354
RightToes  5.82063e-011 0 -3.6325e-017
Spine  -11.8206 1.35635 2.39011
Spine1  10.7703 1.49126 -1.27118
HEad  -15.7707 6.31955 -6.69145
LeftShoulder1  -0.142931 3.87825 -32.1009
LeftArm  -2.04956 0.217239 -44.4659
LeftForeArm  33.6809 -8.03057 -9.12255
LeftHand  -0.0271456 5.26583 -4.35646
RightShoulder  -0.756947 -5.65702 28.5077
RightArm  19.429 4.07167 49.9669
RightForeArm  9.64672 13.9653 6.78121
RightHand  -0.246606 0.743882 -4.75383
LeftUpLeg  -13.2561 2.35849 -0.397845
LeftLeg  2.06435 3.34554 0.3629
LeftFoot  -0.872499 0.151541 -1.60859
LeftToes  1.81573e-012 2.54609e-010 -3.45981e-011
12
root  18.401 39.5809 25.5122 -160.56 -51.4297 170.046
RightUpLeg  -16.1462 -9.97956 -3.32076
RightLeg  15.0932 -2.17178 0.37149
RightFoot  -11.4327 -0.0779096 -2.60173
RightToes  5.82063e-011 0 -3.6325e-017
Spine  -10.5766 1.70761 2.9527
Spine1  10.3526 2.00087 -1.86787
HEad  -15.5082 6.10166 -7.22934
LeftShoulder1  -0.240433 4.12812 -32.2479
LeftArm  -1.86564 1.2078 -43.6091
LeftForeArm  32.575 -8.61141 -8.98494
LeftHand  -0.0290399 5.1864 -3.48822
RightShoulder  -0.791197 -5.73237 28.8703
RightArm  18.9073 3.65404 49.7528
RightForeArm  12.0048 12.7667 7.1384
RightHand  -0.181233 0.740142 -3.52836
LeftUpLeg  -13.8277 2.61635 -0.370908
LeftLeg  5.4443 3.1543 0.461955
LeftFoot  -3.40696 0.163835 -2.05648
LeftToes  1.81573e-012 2.54609e-010 -3.45981e-011
13
root  18.3214 39.4158 25.4163 -161.487 -51.275 170.106
RightUpLeg  -15.7559 -10.4331 -3.34931
RightLeg  16.9426 -1.21419 0.335335
RightFoot  -14.048 -0.128523 -1.50945
RightToes  5.82063e-011 0 -3.6325e-017
Spine  -9.95209 2.23636 3.83726
Spine1  10.9885 2.52465 -1.8316
HEad  -14.1714 7.00771 -9.06813
LeftShoulder1  -0.37966 4.46844 -33.2539
LeftArm  0.0449123 1.99259 -42.241
LeftForeArm  29.9313 -10.0965 -8.99998
LeftHand  -0.00205483 4.10042 -1.8237
RightShoulder  -0.719379 -5.57512 28.0718
RightArm  17.6751 2.97229 50.1834
RightForeArm  12.3798 11.1135 7.58444
RightHand  -0.208002 0.6756 -4.06847
LeftUpLeg  -14.8025 2.66259 -0.300647
LeftLeg  9.93721 3.28226 0.849395
LeftFoot  -5.89175 0.130462 -1.99402
LeftToes  1.81573e-012 2.54609e-010 -3.45981e-011
14
root  18.1775 39.2362 25.3227 -162.624 -51.6753 170.275
RightUpLeg  -14.9566 -10.6522 -3.41341
RightLeg  18.6347 -1.05412 0.172647
RightFoot  -16.6235 -0.129702 -0.332202
RightToes  5.82063e-011 0 -3.6325e-017
Spine  -8.98114 2.77743 5.51548
Spine1  11.0956 3.17029 -2.34614
HEad  -13.1538 7.62461 -9.26833
LeftShoulder1  -0.365032 4.43951 -32.8754
LeftArm  0.390637 3.58868 -42.5343
LeftForeArm  28.9827 -11.4551 -8.42657
LeftHand  -0.00494587 4.09866 -1.72755
RightShoulder  -0.698181 -5.5231 27.896
RightArm  16.3318 1.90169 50.0138
RightForeArm  12.3527 9.45734 7.8472
RightHand  -0.206872 0.780197 -3.98772
LeftUpLeg  -16.2909 1.36072 -0.202197
LeftLeg  15.7447 4.71448 1.84233
LeftFoot  -7.59897 0.0972867 -1.55614
LeftToes  1.81573e-012 2.54609e-010 -3.45981e-011
15
root  18.0394 39.1116 25.1945 -163.647 -52.135 170.088
RightUpLeg  -13.708 -11.2957 -3.74415
RightLeg  19.762 -0.729044 0.279666
RightFoot  -18.226 -0.119568 0.0654758
RightToes  5.82063e-011 0 -3.6325e-017
Spine  -7.39549 3.42477 6.4971
Spine1  10.6792 3.94579 -2.46756
HEad  -10.8996 7.66882 -10.0744
LeftShoulder1  -0.391802 4.50576 -32.9577
LeftArm  2.35247 5.22184 -42.4901
LeftForeArm  26.4368 -13.8469 -7.55831
LeftHand  -0.0032398 4.15429 -2.23892
RightShoulder  -0.790432 -5.74589 28.631
RightArm  15.7593 1.34381 48.8259
RightForeArm  12.5744 7.63079 8.09783
RightHand  -0.158849 0.883031 -3.04294
LeftUpLeg  -18.0169 1.37008 -0.632364
LeftLeg  22.1868 5.24835 2.6579
LeftFoot  -8.63092 0.0706874 -0.833516
LeftToes  1.81573e-012 2.54609e-010 -3.45981e-011
